<?xml version="1.0" standalone="no"?>
<!DOCTYPE svg PUBLIC "-//W3C//DTD SVG 20010904//EN"
 "http://www.w3.org/TR/2001/REC-SVG-20010904/DTD/svg10.dtd">
<svg version="1.0" xmlns="http://www.w3.org/2000/svg"
 width="2000.000000pt" height="2000.000000pt" viewBox="0 0 2000.000000 2000.000000"
 preserveAspectRatio="xMidYMid meet">
<metadata>
Created by potrace 1.14, written by Peter Selinger 2001-2017
</metadata>
<g transform="translate(0.000000,2000.000000) scale(0.100000,-0.100000)"
fill="#000000" stroke="none">
<path d="M15886 17523 c-1 -1 -42 -5 -91 -8 -107 -6 -153 -12 -220 -28 -53
-13 -220 -14 -603 -2 -178 5 -220 4 -260 -9 -26 -9 -58 -18 -72 -20 -14 -3
-27 -6 -30 -7 -3 -1 -16 -3 -30 -5 -23 -2 -68 -9 -115 -19 -54 -11 -112 -27
-140 -40 -16 -8 -66 -28 -110 -44 -44 -17 -114 -51 -155 -76 -41 -24 -82 -45
-91 -45 -9 0 -24 -9 -34 -20 -10 -11 -62 -47 -116 -80 -53 -34 -100 -67 -103
-75 -3 -8 -11 -15 -18 -15 -19 0 -78 -59 -78 -78 -1 -17 -87 -85 -147 -116
-18 -9 -59 -43 -90 -75 -46 -47 -66 -60 -99 -66 -23 -3 -51 -15 -63 -26 -19
-18 -60 -39 -126 -64 -11 -4 -31 -9 -45 -11 -26 -3 -152 -65 -179 -87 -8 -7
-17 -11 -20 -9 -6 3 -89 -59 -187 -138 -23 -19 -64 -46 -91 -60 -26 -14 -49
-28 -51 -32 -2 -5 -10 -8 -18 -8 -8 0 -20 -11 -26 -25 -6 -14 -16 -25 -21 -25
-16 0 -157 -149 -157 -166 0 -8 -10 -25 -23 -37 -35 -33 -85 -109 -92 -139 -7
-26 -77 -93 -125 -118 -14 -7 -32 -22 -40 -32 -8 -11 -31 -37 -50 -60 -19 -22
-52 -64 -74 -92 -21 -28 -51 -60 -67 -71 -29 -20 -45 -49 -41 -72 2 -8 -8 -13
-27 -13 -21 0 -41 -12 -73 -43 -23 -24 -62 -58 -85 -75 -23 -18 -45 -41 -48
-51 -3 -11 -17 -22 -31 -25 -14 -4 -38 -20 -52 -36 -15 -15 -48 -43 -74 -62
-26 -18 -100 -76 -165 -129 -72 -59 -177 -131 -268 -184 -195 -115 -349 -219
-365 -250 -7 -14 -21 -25 -31 -25 -9 0 -26 -11 -36 -24 -10 -13 -52 -46 -93
-74 -41 -27 -84 -58 -95 -68 -11 -11 -50 -45 -87 -78 -37 -32 -78 -75 -90 -95
-12 -20 -38 -49 -57 -66 -20 -16 -61 -55 -91 -86 -34 -33 -92 -76 -145 -105
-50 -27 -99 -54 -110 -61 -11 -6 -56 -30 -100 -52 -49 -25 -113 -70 -165 -116
-47 -42 -116 -96 -155 -122 -83 -55 -186 -131 -200 -148 -6 -7 -33 -30 -60
-51 -59 -44 -59 -44 -110 -109 -22 -27 -48 -56 -57 -63 -9 -6 -40 -37 -70 -69
-29 -31 -65 -69 -80 -85 -16 -16 -28 -33 -28 -37 0 -5 -15 -18 -32 -30 -74
-47 -105 -70 -140 -107 -120 -125 -162 -166 -232 -229 -43 -38 -93 -77 -112
-85 -35 -16 -192 -166 -298 -284 -81 -92 -127 -143 -171 -191 -20 -22 -43 -54
-51 -70 -15 -32 -33 -51 -101 -111 -24 -20 -43 -42 -43 -48 0 -7 -14 -34 -32
-62 -17 -27 -46 -78 -65 -114 -31 -61 -118 -191 -209 -311 -22 -30 -50 -76
-63 -104 -12 -27 -38 -81 -57 -120 -19 -38 -34 -76 -34 -82 0 -7 -4 -13 -9
-13 -5 0 -16 -18 -24 -39 -9 -22 -21 -42 -26 -45 -5 -4 -23 -34 -39 -69 -16
-34 -39 -71 -51 -81 -11 -11 -21 -28 -21 -38 0 -30 -144 -318 -162 -326 -5 -2
-8 -8 -8 -13 0 -5 -11 -27 -25 -49 -14 -22 -23 -40 -20 -40 6 0 -22 -46 -87
-144 -22 -33 -58 -93 -79 -134 -22 -40 -55 -93 -73 -117 -19 -24 -49 -70 -67
-102 -18 -32 -62 -102 -98 -157 -109 -163 -131 -198 -166 -266 -19 -37 -55
-86 -84 -113 -28 -26 -51 -54 -51 -62 0 -8 -21 -36 -47 -62 -47 -47 -113 -128
-113 -138 0 -3 -16 -28 -35 -56 -19 -28 -35 -58 -35 -66 0 -8 -11 -29 -25 -47
-14 -18 -25 -38 -25 -44 0 -7 -15 -29 -34 -49 -18 -21 -43 -60 -54 -86 -12
-27 -41 -79 -66 -115 -24 -37 -48 -83 -55 -102 -6 -19 -22 -47 -36 -62 -14
-15 -25 -34 -25 -43 0 -8 -8 -23 -18 -33 -17 -17 -131 -192 -159 -244 -7 -13
-15 -43 -18 -68 -4 -30 -16 -57 -35 -80 -17 -19 -33 -43 -36 -52 -3 -10 -11
-18 -17 -19 -42 -2 -70 -15 -134 -59 -39 -28 -76 -50 -81 -50 -6 0 -12 -4 -14
-8 -1 -4 -30 -24 -63 -44 -33 -20 -70 -46 -82 -57 -12 -12 -25 -21 -28 -21
-10 0 -168 -112 -192 -136 -13 -13 -28 -24 -34 -24 -5 0 -20 -11 -32 -23 -12
-13 -43 -36 -69 -51 -26 -15 -64 -44 -85 -65 -21 -21 -51 -45 -68 -54 -16 -9
-52 -37 -79 -62 -26 -26 -66 -59 -88 -75 -51 -37 -118 -101 -239 -228 -19 -20
-60 -61 -91 -90 -35 -33 -63 -70 -73 -97 -12 -31 -25 -47 -44 -53 -15 -5 -43
-27 -62 -48 -18 -22 -66 -70 -105 -109 -39 -38 -92 -98 -117 -131 -26 -34 -67
-79 -92 -100 -32 -27 -57 -62 -81 -112 -20 -39 -39 -72 -44 -72 -4 0 -43 -33
-85 -72 -43 -40 -85 -77 -94 -83 -25 -15 -133 -97 -153 -117 -9 -9 -32 -25
-50 -34 -18 -9 -41 -26 -51 -38 -43 -51 -81 -86 -93 -86 -7 0 -19 -10 -25 -22
-22 -42 -178 -185 -259 -237 -83 -54 -131 -92 -167 -129 -17 -18 -40 -35 -51
-37 -30 -5 -63 -26 -112 -71 -25 -22 -79 -65 -121 -96 -41 -31 -89 -72 -107
-92 -17 -20 -33 -36 -35 -36 -9 0 -95 -88 -126 -127 -18 -24 -39 -43 -46 -43
-7 0 -33 -21 -57 -48 -23 -26 -64 -63 -90 -82 -26 -19 -52 -46 -58 -60 -6 -14
-26 -36 -46 -50 -19 -14 -49 -38 -67 -55 -46 -42 -94 -85 -176 -155 -39 -33
-92 -81 -118 -106 -27 -25 -68 -62 -93 -82 -25 -20 -61 -52 -81 -71 -19 -20
-55 -55 -80 -77 -67 -63 -123 -130 -199 -237 -70 -99 -92 -149 -85 -190 3 -11
7 -38 10 -59 7 -45 33 -110 48 -119 5 -4 22 -31 36 -60 16 -33 37 -59 56 -69
39 -21 41 -39 10 -76 -14 -16 -25 -37 -25 -47 0 -26 -24 -69 -52 -92 -13 -11
-46 -39 -74 -62 -28 -24 -58 -56 -66 -73 -16 -32 -104 -130 -117 -130 -10 0
-71 -58 -71 -67 0 -3 -19 -27 -42 -53 -24 -25 -54 -60 -68 -76 -14 -16 -34
-36 -45 -44 -36 -27 -56 -57 -49 -74 3 -9 12 -16 19 -16 18 0 88 38 121 66 15
13 33 24 41 24 7 0 13 4 13 8 0 5 24 19 53 33 81 37 218 119 257 153 20 17 53
45 75 61 55 42 141 120 278 251 28 26 138 97 240 155 43 24 86 51 96 61 10 9
43 29 72 44 30 15 88 51 131 81 42 29 82 53 89 53 7 0 24 11 38 25 42 40 154
126 186 142 34 18 186 140 198 160 4 7 15 13 23 13 8 0 17 7 20 15 4 8 11 15
18 15 6 1 34 21 61 46 28 25 63 55 78 67 16 12 34 27 40 32 7 6 35 28 62 49
28 22 66 56 85 76 20 20 52 42 71 49 20 6 47 24 61 39 33 36 123 119 178 162
114 91 170 138 224 192 57 56 126 107 126 93 0 -14 32 20 41 42 5 13 21 28 36
34 16 6 53 30 83 53 30 24 96 66 146 95 50 28 100 60 112 71 12 11 24 20 27
20 3 0 15 9 27 20 20 18 39 25 61 21 4 0 7 3 7 9 0 12 35 47 92 90 26 19 54
47 62 62 9 15 26 30 38 34 12 4 34 18 49 33 54 54 171 156 182 160 6 2 17 9
23 15 7 6 26 22 44 36 18 14 38 30 44 36 7 7 32 22 57 34 24 13 60 35 79 50
19 15 75 46 123 70 48 23 114 64 146 91 33 27 63 49 68 49 4 0 19 10 33 23 14
13 32 27 42 33 9 5 52 42 96 82 137 125 133 122 183 122 26 0 66 -7 89 -15 23
-8 63 -15 89 -15 52 0 206 35 326 75 44 14 88 27 98 28 9 1 17 5 17 9 0 4 6 8
13 8 8 0 56 15 108 34 142 51 219 77 274 92 49 14 67 17 150 29 22 4 54 11 71
16 17 5 40 11 50 14 10 2 55 13 99 25 112 29 126 32 160 34 26 1 31 -4 41 -34
10 -28 9 -38 -2 -51 -8 -8 -14 -19 -14 -24 0 -5 -21 -40 -47 -79 -27 -39 -52
-78 -58 -87 -60 -98 -125 -172 -175 -200 -20 -11 -51 -43 -69 -72 -18 -29 -48
-61 -65 -72 -17 -11 -47 -42 -66 -68 -19 -26 -54 -57 -77 -69 -24 -13 -46 -30
-48 -40 -3 -9 -26 -36 -51 -60 -25 -23 -69 -65 -97 -93 -29 -27 -67 -58 -85
-67 -69 -36 -23 -61 113 -62 55 0 125 4 155 8 30 5 87 10 125 11 155 6 226 15
345 45 47 12 92 22 100 24 8 1 31 5 50 9 19 4 62 9 95 12 33 2 78 8 100 14 22
5 51 12 65 14 37 7 91 16 120 21 14 2 42 11 62 19 28 12 150 46 253 72 6 1 17
5 25 8 8 3 76 25 150 48 74 23 152 53 174 66 21 14 46 26 56 28 10 2 51 17 91
33 41 16 89 32 108 36 19 3 84 30 145 60 119 58 138 65 176 72 13 3 40 13 60
23 19 10 55 26 80 36 25 9 57 23 72 31 39 21 73 17 107 -11 75 -64 261 -142
347 -146 43 -2 54 -8 91 -46 37 -37 47 -42 85 -42 45 1 118 -20 118 -33 0 -5
10 -8 23 -8 13 0 48 -15 78 -33 75 -45 147 -75 264 -109 127 -37 149 -40 265
-40 92 1 98 -1 185 -43 50 -25 108 -55 130 -68 72 -43 121 -56 223 -57 35 -1
75 -6 89 -11 14 -5 48 -12 76 -15 28 -3 61 -10 74 -15 13 -5 54 -11 91 -14 37
-3 96 -13 132 -21 69 -16 208 -26 215 -15 2 4 30 4 62 1 68 -6 217 -4 288 5
28 3 77 8 110 10 33 3 85 10 115 16 30 6 64 11 75 12 11 2 34 8 50 14 17 6 52
17 78 24 27 6 65 23 85 37 30 21 48 25 94 24 31 -1 67 -6 81 -11 18 -7 28 -5
40 6 14 14 18 11 46 -27 17 -24 31 -47 31 -52 0 -15 133 -283 142 -287 5 -1
20 -27 33 -57 13 -30 31 -57 39 -60 7 -3 31 -33 52 -67 21 -34 66 -91 101
-126 35 -36 63 -70 63 -76 0 -6 23 -39 50 -73 28 -34 50 -66 50 -71 0 -5 7
-11 15 -15 8 -3 15 -13 15 -22 0 -9 8 -28 19 -42 10 -15 19 -40 19 -57 1 -28
-27 -116 -49 -157 -5 -10 -9 -23 -9 -29 0 -7 -16 -31 -35 -55 -19 -23 -35 -45
-35 -49 0 -3 -13 -26 -30 -50 -16 -24 -30 -50 -30 -57 -1 -18 -25 -48 -38 -48
-7 0 -23 -24 -38 -52 -14 -29 -39 -64 -55 -76 -29 -24 -67 -87 -74 -123 -2
-10 -13 -29 -25 -41 -18 -19 -21 -30 -15 -68 4 -25 8 -63 10 -85 2 -23 11 -54
19 -70 9 -17 16 -35 16 -42 0 -6 16 -26 36 -45 20 -18 50 -48 68 -67 17 -19
47 -52 66 -73 19 -20 47 -40 63 -42 15 -3 27 -3 27 -1 0 2 -20 28 -44 58 -58
71 -67 90 -72 150 -3 28 -10 57 -15 64 -6 6 -11 43 -12 80 -1 58 4 78 32 137
18 37 51 87 75 110 23 22 45 48 48 57 4 10 24 22 45 29 21 6 45 14 53 17 8 4
25 8 36 9 19 2 131 67 144 83 18 22 61 39 86 34 16 -3 36 -5 44 -6 8 0 20 -4
26 -8 6 -5 24 -10 40 -11 42 -2 144 -36 175 -59 15 -10 30 -19 33 -19 35 0
247 -215 260 -262 3 -13 21 -41 41 -62 19 -22 33 -41 31 -44 -2 -2 7 -27 20
-55 32 -69 30 -112 -7 -234 -18 -57 -29 -106 -25 -110 8 -9 49 40 70 85 55
114 50 99 63 177 20 129 -21 310 -85 376 -21 20 -50 54 -67 75 -16 21 -74 83
-128 139 l-98 100 38 5 c41 6 134 4 170 -4 41 -9 108 -17 163 -20 30 -2 68 -9
83 -15 16 -6 45 -11 65 -11 39 0 174 -50 255 -94 57 -31 186 -132 194 -152 3
-8 11 -14 19 -14 8 0 14 -4 14 -9 0 -6 13 -23 28 -38 16 -15 37 -50 47 -78 23
-64 42 -93 66 -100 11 -4 17 -10 15 -14 -12 -18 -17 -141 -7 -141 6 0 11 5 11
10 0 6 10 32 23 58 44 93 22 238 -60 395 -53 102 -215 260 -322 316 -79 41
-250 95 -331 106 -25 3 -54 7 -65 9 -11 2 -27 0 -36 -5 -9 -5 -20 -5 -24 -1
-3 4 -39 8 -78 8 -40 1 -85 4 -101 8 -16 3 -48 8 -70 11 -54 8 -81 13 -81 15
0 4 -43 11 -83 14 -44 4 -105 38 -152 83 -13 14 -38 32 -55 40 -52 27 -116
112 -252 332 -35 57 -75 112 -88 123 -25 20 -72 90 -121 183 -14 28 -57 94
-95 147 -62 87 -83 123 -89 153 -1 6 -8 17 -15 25 -7 8 -16 27 -20 42 -10 40
47 98 121 122 86 28 147 57 160 74 6 8 16 12 23 8 6 -4 32 4 59 18 26 14 71
35 101 46 69 27 174 82 210 112 15 13 38 30 51 38 13 8 35 25 49 36 45 37 136
83 147 76 14 -9 64 -96 64 -111 0 -7 14 -32 30 -56 16 -24 30 -47 30 -51 0 -3
20 -35 45 -70 25 -34 45 -69 45 -76 0 -7 11 -33 24 -58 52 -95 72 -141 100
-225 23 -71 27 -93 27 -155 -1 -67 -14 -116 -38 -138 -10 -10 -32 -35 -48 -57
-16 -22 -37 -48 -46 -58 -13 -14 -82 -141 -85 -157 0 -3 -3 -12 -7 -20 -36
-93 -26 -215 25 -312 l22 -43 11 50 c7 31 8 62 3 83 -5 18 -6 37 -3 42 3 6 8
19 10 30 5 25 69 116 104 148 14 13 53 38 86 54 32 17 75 40 95 53 25 16 52
22 95 23 33 1 76 2 95 2 40 1 41 1 177 -34 56 -14 135 -39 176 -56 42 -16 82
-30 90 -30 25 0 168 -70 237 -116 88 -58 135 -120 180 -239 12 -33 27 -70 33
-82 5 -12 7 -40 3 -62 -3 -23 -5 -41 -3 -41 11 0 69 64 83 92 9 18 19 62 21
98 5 61 2 71 -38 150 -23 47 -55 103 -70 126 -40 59 -137 151 -173 164 -17 6
-38 16 -46 21 -8 5 -32 18 -52 29 -21 11 -42 29 -48 39 -8 16 -4 24 25 49 33
27 55 33 195 60 19 4 105 6 190 6 141 -1 162 -3 236 -28 104 -34 159 -71 228
-152 55 -65 67 -95 71 -176 3 -55 4 -60 15 -53 5 3 10 22 10 41 0 19 4 34 10
34 32 0 48 129 23 193 -14 37 -49 92 -93 146 -29 36 -241 138 -335 162 -80 20
-275 26 -538 16 -163 -6 -211 3 -307 60 -69 41 -109 77 -207 188 -79 90 -94
110 -128 168 -15 26 -40 60 -55 75 -15 15 -30 43 -34 62 -10 55 -51 134 -126
247 -39 57 -70 112 -70 123 0 11 12 26 28 34 16 8 35 22 42 31 8 9 41 30 74
47 34 17 63 34 66 37 3 4 34 20 70 35 69 30 207 117 252 159 14 13 41 35 60
48 18 13 40 30 48 39 25 25 62 45 125 70 153 60 328 164 515 305 53 40 140
103 195 141 55 37 138 94 184 126 47 32 89 58 94 58 5 0 27 13 50 29 43 29 71
48 138 91 355 232 472 330 749 626 56 59 91 95 164 163 68 64 240 236 262 261
11 14 52 52 90 85 38 33 96 91 129 129 33 38 69 79 81 90 11 12 31 37 44 56
21 30 41 54 95 114 31 35 96 127 114 163 12 23 34 57 49 75 34 39 122 181 122
196 0 6 3 12 8 14 4 2 17 23 30 48 13 25 46 87 74 139 27 51 51 103 54 114 2
12 15 44 28 72 50 102 105 252 122 330 8 36 35 189 40 224 2 18 18 94 34 167
17 74 35 167 40 207 6 39 13 85 16 100 2 15 0 35 -5 44 -6 11 -3 26 9 47 10
17 21 58 25 91 3 32 9 64 13 70 3 5 7 21 8 35 1 14 3 27 4 30 2 3 4 10 5 15 1
6 4 17 8 25 3 8 13 38 23 65 10 28 24 55 32 60 7 6 15 27 18 48 2 20 14 60 25
89 12 29 23 67 25 83 2 17 8 44 14 60 10 33 29 140 35 195 3 38 12 102 22 165
12 81 16 337 9 582 -3 84 -1 155 4 158 4 3 6 17 4 33 -2 15 -5 38 -7 51 -9 60
40 307 86 438 20 56 38 113 41 126 2 14 9 34 15 44 5 11 23 57 39 104 29 83
50 128 117 244 19 33 42 83 51 110 9 28 25 59 35 71 10 11 31 49 45 85 14 35
32 78 39 94 15 31 52 146 60 180 2 11 9 47 16 79 7 33 21 68 31 78 10 10 19
27 19 38 1 11 2 23 3 28 1 4 8 37 15 75 7 37 16 69 20 72 4 2 25 6 47 9 74 10
106 17 209 47 57 15 123 31 147 35 40 6 60 13 163 59 22 10 45 19 50 21 12 2
203 92 225 105 8 5 22 12 30 15 28 11 55 25 115 59 33 19 75 41 92 49 95 43
122 114 64 167 -54 49 -179 115 -301 159 -123 45 -139 52 -300 128 -58 27
-130 57 -160 67 -30 10 -64 22 -74 28 -11 5 -56 18 -100 29 -45 10 -112 30
-149 43 -38 14 -79 25 -92 25 -13 0 -27 5 -30 10 -4 6 -11 8 -16 5 -5 -4 -9 3
-9 14 0 12 0 23 0 26 0 3 -11 30 -25 61 -14 31 -25 60 -25 65 0 4 -13 30 -29
58 -16 27 -27 51 -25 54 3 2 -10 24 -28 48 -18 24 -45 63 -61 86 -15 24 -45
66 -67 95 -22 29 -40 58 -40 63 0 18 -56 95 -121 168 -105 116 -158 163 -300
265 -48 35 -111 88 -140 119 -82 85 -101 103 -176 164 -78 64 -157 119 -171
119 -5 0 -14 11 -20 24 -7 16 -24 29 -49 35 -21 6 -54 25 -74 43 -54 51 -158
120 -169 113 -6 -3 -10 -1 -10 4 0 6 -5 11 -11 11 -6 0 -25 6 -42 14 -18 8
-48 17 -67 20 -19 3 -64 20 -99 37 -36 16 -94 38 -130 48 -37 11 -86 26 -111
36 -39 15 -178 48 -250 61 -14 2 -34 6 -45 8 -11 2 -45 6 -75 10 -30 3 -75 9
-100 12 -69 9 -378 23 -384 17z m467 -407 c5 -13 -10 -36 -24 -36 -3 0 -4 11
-1 25 5 27 17 33 25 11z m-18 -4016 c3 -5 1 -10 -4 -10 -6 0 -11 5 -11 10 0 6
2 10 4 10 3 0 8 -4 11 -10z m-3635 -654 c0 -35 -15 -40 -16 -5 -1 16 3 29 7
29 5 0 9 -11 9 -24z m1770 -3966 c0 -5 -4 -10 -10 -10 -5 0 -10 5 -10 10 0 6
5 10 10 10 6 0 10 -4 10 -10z"/>
</g>
</svg>
