<svg xmlns="http://www.w3.org/2000/svg" viewBox="0 0 457.97 500">
  <defs>
    <style>.cls-1,.cls-3{fill:#d6d8e5;}.cls-1{opacity:0.4;}.cls-2{fill:#b1b4c4;}.cls-4{fill:#9ea1af;}.cls-5{fill:#e4e7f2;}.cls-6{fill:#fff;}.cls-7{fill:#e9eaf2;}.cls-8{fill:#dadce5;}.cls-9{fill:#232733;}.cls-10{fill:#77b5ed;}.cls-11{fill:#353c4c;}.cls-12{fill:#2b303f;}.cls-13{fill:#e7e9f2;}.cls-14{fill:#f7dc6b;}.cls-15{fill:#4CA2F2;}.cls-16{fill:#b1b6c4;}.cls-17{fill:#c4c7d6;}.cls-18{fill:#38226d;}.cls-19{fill:#73C0FF;}.cls-20{fill:#ffcea9;}.cls-21{fill:#ededed;}.cls-22{fill:#e5e5e5;}.cls-23{fill:#f4f4f4;}.cls-24{fill:#bfbfbf;}.cls-25{fill:#3a2c6d;}.cls-26{fill:#dceeff;}.cls-27{fill:#dbdbdb;}.cls-28{fill:#1e3779;}.cls-29{fill:#031f60;}.cls-30{fill:#edf0f9;}.cls-31{fill:#e2e5f2;}.cls-32{fill:#48ABE5;}</style>
  </defs>
  <title>Web_design_SVG</title>
  <g id="Слой_2" data-name="Слой 2">
    <g id="Слой_1-2" data-name="Слой 1">
      <g id="monitor">
        <path class="cls-1" d="M310.52,385.65,262.7,358c-3.45-2-3-5.47,1-7.77l31-17.89L355,367.21,324,385.1C320,387.39,314,387.64,310.52,385.65Z" />
        <path class="cls-2" d="M314.84,383.12,267,355.51c-3.44-2-3-5.47,1-7.77l31-17.89,60.32,34.83-31,17.89C324.31,384.86,318.29,385.11,314.84,383.12Z" />
        <polygon class="cls-2" points="359.28 364.68 359.28 362.85 356.49 364.46 359.28 364.68" />
        <polygon class="cls-2" points="264.69 352.22 264.69 350.36 267.55 351.55 264.69 352.22" />
        <path class="cls-3" d="M314.84,381.3,267,353.68c-3.44-2-3-5.46,1-7.76L299,328l60.32,34.82-31,17.89C324.31,383,318.29,383.29,314.84,381.3Z" />
        <polygon class="cls-4" points="299.13 328.11 291.66 303.35 352.63 338.32 359.28 362.85 299.13 328.11" />
        <path class="cls-4" d="M357.51,363.87l1.77-1-2.63-2.1Z" />
        <polygon class="cls-2" points="297.2 329.04 289.74 304.28 350.71 339.25 357.51 363.87 297.2 329.04" />
        <path class="cls-2" d="M452,405.61,216,269.35c-3.31-1.91-6-7-6-11.46V75.33c0-4.41,2.68-6.44,6-4.53L452,207.06c3.31,1.91,6,7,6,11.45V401.08C458,405.49,455.29,407.52,452,405.61Z" />
        <polygon class="cls-2" points="453.19 407.49 455.81 405.98 454.68 398.23 453.19 407.49" />
        <path class="cls-2" d="M209.55,71.93l2.58-1.49,3.7,2.11s-3.94.6-4,.58S209.55,71.93,209.55,71.93Z" />
        <path class="cls-5" d="M449.82,406.86l-236-136.26c-3.31-1.91-6-7-6-11.46V76.58c0-4.41,2.69-6.44,6-4.53l236,136.26c3.31,1.91,6,7,6,11.45V402.33C455.81,406.74,453.13,408.77,449.82,406.86Z" />
        <path class="cls-3" d="M449.4,407.09l-236-136.26c-3.31-1.91-6-7-6-11.45V76.82c0-4.41,2.68-6.44,6-4.53l236,136.26c3.31,1.91,6,7,6,11.45V402.56C455.4,407,452.71,409,449.4,407.09Z" />
        <path class="cls-6" d="M452.15,396,210.39,256.42l.13-178.87c0-1.83,1.29-2.57,2.87-1.66l236,136.26a6.35,6.35,0,0,1,2.87,5Z" />
        <path class="cls-7" d="M437.18,240.5,222.88,116.78a5.85,5.85,0,0,1-2.44-4.66V96.65c0-1.79,1.09-2.62,2.44-1.84l214.3,123.72a5.85,5.85,0,0,1,2.44,4.67v15.46C439.62,240.46,438.53,241.28,437.18,240.5Z" />
        <path class="cls-7" d="M426,281.91l-50.37-29.08a5.85,5.85,0,0,1-2.44-4.66V215.66c0-1.8,1.09-2.62,2.44-1.84L426,242.9a5.83,5.83,0,0,1,2.44,4.66v32.51C428.4,281.86,427.31,282.69,426,281.91Z" />
        <path class="cls-7" d="M359.61,292.47l-126.36-73a2.9,2.9,0,0,1-1.22-2.33v-5.59c0-.9.54-1.32,1.22-.93l126.36,73a2.93,2.93,0,0,1,1.22,2.33v5.6C360.83,292.44,360.28,292.86,359.61,292.47Z" />
        <path class="cls-7" d="M347.17,298.53,233.61,233a2.94,2.94,0,0,1-1.22-2.33v-2.79c0-.9.55-1.31,1.22-.92l113.56,65.56a2.93,2.93,0,0,1,1.22,2.33v2.78C348.39,298.5,347.84,298.92,347.17,298.53Z" />
        <path class="cls-7" d="M347.17,309.09,233.61,243.53a2.93,2.93,0,0,1-1.22-2.33v-2.79c0-.89.55-1.31,1.22-.92l113.56,65.56a2.93,2.93,0,0,1,1.22,2.33v2.79C348.39,309.07,347.84,309.48,347.17,309.09Z" />
        <path class="cls-7" d="M318.14,302.89l-84.53-48.8a2.93,2.93,0,0,1-1.22-2.33V249c0-.9.55-1.31,1.22-.93l84.53,48.8a3,3,0,0,1,1.22,2.34V302C319.36,302.87,318.81,303.28,318.14,302.89Z" />
        <path class="cls-7" d="M427.18,295.43l-52.81-30.49a2.9,2.9,0,0,1-1.22-2.33v-2.79c0-.9.54-1.31,1.22-.92l52.81,30.49a2.93,2.93,0,0,1,1.22,2.33v2.79C428.4,295.41,427.85,295.82,427.18,295.43Z" />
        <path class="cls-7" d="M427.18,306,374.37,275.5a2.9,2.9,0,0,1-1.22-2.33v-2.78c0-.9.54-1.32,1.22-.93L427.18,300a2.91,2.91,0,0,1,1.22,2.33v2.78C428.4,306,427.85,306.38,427.18,306Z" />
        <path class="cls-7" d="M413.35,308.57l-39-22.51a2.9,2.9,0,0,1-1.22-2.33V281c0-.9.54-1.31,1.22-.92l39,22.5a2.92,2.92,0,0,1,1.22,2.33v2.79C414.57,308.55,414,309,413.35,308.57Z" />
        <path class="cls-7" d="M426,363.31l-50.37-29.08a5.85,5.85,0,0,1-2.44-4.66V297.06c0-1.79,1.09-2.62,2.44-1.84L426,324.3A5.85,5.85,0,0,1,428.4,329v32.51C428.4,363.26,427.31,364.09,426,363.31Z" />
        <path class="cls-7" d="M427.18,376.83l-52.81-30.49a2.9,2.9,0,0,1-1.22-2.33v-2.78c0-.9.54-1.32,1.22-.93l52.81,30.49a3,3,0,0,1,1.22,2.34v2.78C428.4,376.81,427.85,377.22,427.18,376.83Z" />
        <ellipse class="cls-8" cx="230.26" cy="109.98" rx="3.83" ry="6.64" transform="translate(-24.14 129.87) rotate(-30)" />
        <path class="cls-8" d="M341.68,176.35l-18.54-10.7a1.47,1.47,0,0,1-.61-1.17V162c0-.45.27-.66.61-.46l18.54,10.7a1.43,1.43,0,0,1,.61,1.16v2.46C342.29,176.34,342,176.55,341.68,176.35Z" />
        <path class="cls-8" d="M371.68,193.68,353.14,183a1.46,1.46,0,0,1-.61-1.16v-2.46c0-.45.28-.66.61-.46l18.54,10.7a1.47,1.47,0,0,1,.61,1.17v2.46C372.29,193.66,372,193.87,371.68,193.68Z" />
        <path class="cls-8" d="M401.2,210.72,382.66,200a1.43,1.43,0,0,1-.61-1.16v-2.46c0-.45.27-.65.61-.46l18.54,10.7a1.47,1.47,0,0,1,.61,1.17v2.46C401.81,210.71,401.54,210.91,401.2,210.72Z" />
        <path class="cls-8" d="M431.2,228l-18.53-10.7a1.47,1.47,0,0,1-.61-1.17v-2.46c0-.45.27-.65.61-.46L431.2,224a1.43,1.43,0,0,1,.61,1.16v2.46C431.81,228,431.54,228.24,431.2,228Z" />
        <polygon class="cls-8" points="390.28 246.91 386.74 237.8 380.31 246.96 387.37 251.04 393.18 254.39 406.13 261.87 396.75 237.7 390.28 246.91" />
        <ellipse class="cls-8" cx="416.37" cy="247.33" rx="3.45" ry="5.97" transform="matrix(0.87, -0.5, 0.5, 0.87, -67.88, 241.33)" />
        <polygon class="cls-8" points="390.64 329.51 387.11 320.4 380.67 329.56 387.74 333.64 393.55 336.99 406.5 344.47 397.12 320.3 390.64 329.51" />
        <ellipse class="cls-8" cx="416.74" cy="329.93" rx="3.45" ry="5.97" transform="translate(-109.13 252.59) rotate(-30)" />
      </g>
      <polygon class="cls-9" points="271.68 205.33 267 224.07 267 208.03 271.68 205.33" />
      <polygon class="cls-9" points="217.17 173.56 212.49 192.31 212.49 176.27 217.17 173.56" />
      <path class="cls-7" d="M294.14,289.83,182.72,225.5a5.23,5.23,0,0,1-2.18-4.18v-57c0-1.61,1-2.35,2.18-1.65L294.14,227a5.21,5.21,0,0,1,2.19,4.17v57.05C296.33,289.79,295.35,290.53,294.14,289.83Z" />
      <polygon class="cls-10" points="213.73 223 207.69 207.43 196.69 223.08 208.77 230.06 218.69 235.79 240.84 248.58 224.8 207.25 213.73 223" />
      <ellipse class="cls-10" cx="270.85" cy="230.93" rx="5.89" ry="10.21" transform="translate(-79.18 166.38) rotate(-30)" />
      <polygon class="cls-11" points="264.95 201.44 264.94 180.06 258.88 175.51 258.88 201.44 252.14 205.33 261.91 210.97 271.68 205.33 264.95 201.44" />
      <polygon class="cls-9" points="261.91 210.97 267 224.07 267 208.94 267 208.03 261.91 210.97" />
      <polygon class="cls-12" points="252.14 205.33 256.47 217.91 267 224.07 261.91 210.97 252.14 205.33" />
      <polygon class="cls-11" points="210.43 169.68 210.43 143.74 204.37 143.74 204.37 169.67 197.63 173.56 207.4 179.21 217.17 173.56 210.43 169.68" />
      <polygon class="cls-9" points="207.4 179.21 212.49 192.31 212.49 177.18 212.49 176.27 207.4 179.21" />
      <polygon class="cls-12" points="197.63 173.56 201.96 186.14 212.49 192.31 207.4 179.21 197.63 173.56" />
      <polygon class="cls-1" points="143.77 290.74 83.41 255.72 10.68 297.71 75.75 335.45 148.49 293.46 148.49 288.02 143.77 290.74" />
      <polygon class="cls-2" points="151.43 286.02 83.41 246.75 15.39 286.02 10.68 283.3 10.68 288.74 83.41 330.74 156.14 288.74 156.14 283.3 151.43 286.02" />
      <polygon class="cls-13" points="83.41 325.29 10.68 283.3 83.41 241.31 156.14 283.3 83.41 325.29" />
      <polygon class="cls-2" points="83.18 267.75 87.93 265.01 87.93 62.2 83.18 64.94 83.18 267.75" />
      <polygon class="cls-2" points="83.56 147.69 116.77 200.25 121.52 198.31 87.93 145.23 83.56 147.69" />
      <polygon class="cls-3" points="83.36 157.04 116.59 209.86 116.59 199.98 83.36 147.35 83.36 157.04" />
      <polygon class="cls-3" points="78.61 265.01 83.36 267.75 83.36 64.94 78.61 62.2 78.61 265.01" />
      <polygon class="cls-3" points="116.59 286.94 121.34 289.68 121.34 86.87 116.59 84.13 116.59 286.94" />
      <polygon class="cls-2" points="121.16 289.68 125.91 286.94 125.91 84.13 121.16 86.87 121.16 289.68" />
      <polygon class="cls-3" points="83.36 253.13 116.59 213.34 116.59 203.8 83.36 243.65 83.36 253.13" />
      <polygon class="cls-2" points="83.36 253.13 87.93 250.63 116.59 216.08 116.59 212.6 83.36 253.13" />
      <polygon class="cls-3" points="83.36 147.69 116.59 107.9 116.59 98.36 83.36 138.21 83.36 147.69" />
      <polygon class="cls-2" points="83.36 147.69 87.93 145.18 116.59 110.64 116.59 107.16 83.36 147.69" />
      <polygon class="cls-2" points="45.48 289.65 50.23 286.91 50.23 84.1 45.48 86.84 45.48 289.65" />
      <polygon class="cls-2" points="45.86 169.59 79.07 222.14 83.82 220.21 50.23 167.13 45.86 169.59" />
      <polygon class="cls-3" points="45.66 178.94 78.89 231.75 78.89 221.88 45.66 169.24 45.66 178.94" />
      <polygon class="cls-3" points="40.92 286.91 45.66 289.65 45.66 86.84 40.92 84.1 40.92 286.91" />
      <polygon class="cls-3" points="78.89 308.83 83.64 311.57 83.64 108.77 78.89 106.02 78.89 308.83" />
      <polygon class="cls-2" points="83.46 311.57 88.21 308.83 88.21 106.02 83.46 108.77 83.46 311.57" />
      <polygon class="cls-3" points="45.66 275.03 78.89 235.24 78.89 225.69 45.66 265.55 45.66 275.03" />
      <polygon class="cls-2" points="45.66 275.03 50.23 272.52 78.89 237.98 78.89 234.49 45.66 275.03" />
      <polygon class="cls-3" points="45.66 169.59 78.89 129.8 78.89 120.25 45.66 160.1 45.66 169.59" />
      <polygon class="cls-2" points="45.66 169.59 50.23 167.08 78.89 132.53 78.89 129.05 45.66 169.59" />
      <polygon class="cls-14" points="83.64 119.04 34.61 90.73 83.64 62.43 132.67 90.73 83.64 119.04" />
      <polygon class="cls-11" points="79.99 37.91 21.86 71.47 5.22 61.86 63.35 28.3 79.99 37.91" />
      <polygon class="cls-12" points="5.22 75.32 5.22 61.86 21.86 71.47 21.86 84.93 5.22 75.32" />
      <polyline class="cls-9" points="21.86 84.93 79.99 51.37 79.99 37.91 21.86 71.47 21.86 83.62" />
      <polygon class="cls-11" points="79.99 22.81 21.86 56.37 5.22 46.76 63.35 13.2 79.99 22.81" />
      <polygon class="cls-12" points="5.22 60.23 5.22 46.76 21.86 56.37 21.86 69.84 5.22 60.23" />
      <polyline class="cls-9" points="21.86 69.84 79.99 36.28 79.99 22.81 21.86 56.37 21.86 68.53" />
      <polygon class="cls-3" points="36.05 64.55 0 43.87 0 36.33 36.05 56.88 36.05 64.55" />
      <polygon class="cls-13" points="88.21 86.82 0 36.33 6.53 32.56 94.74 83.05 88.21 86.82" />
      <polygon class="cls-3" points="75.71 52.63 30.42 26.43 30.42 18.88 75.71 43.15 75.71 52.63" />
      <polygon class="cls-13" points="110.06 64.09 30.42 18.89 36.95 15.12 116.59 60.32 110.06 64.09" />
      <polygon class="cls-3" points="54.55 32.8 54.55 40.34 57.65 62.05 62.25 64.91 54.55 32.8" />
      <polygon class="cls-13" points="68.18 68.13 62.22 37.23 54.55 32.8 59.2 63.25 68.18 68.13" />
      <polygon class="cls-2" points="54.55 40.34 30.76 46.61 18.54 39.55 53.51 32.18 54.55 32.8 54.55 40.34" />
      <polygon class="cls-13" points="54.55 32.8 21.42 41.22 14.3 37.11 47.69 28.58 54.55 32.8" />
      <polygon class="cls-13" points="83.64 56.62 34.61 28.31 83.64 0 132.67 28.31 83.64 56.62" />
      <polygon class="cls-3" points="34.61 115.73 34.61 28.31 83.64 56.62 83.64 144.04 34.61 115.73" />
      <polygon class="cls-2" points="132.67 28.31 132.67 115.73 83.64 144.04 83.64 56.61 132.67 28.31" />
      <polygon class="cls-10" points="83.64 87.07 55.49 70.82 46.44 42.02 83.64 63.5 83.64 87.07" />
      <polygon class="cls-15" points="132.67 35.19 132.67 58.76 83.64 87.08 83.64 63.51 132.67 35.19" />
      <polygon class="cls-3" points="302.27 219.27 90.12 96.78 90.12 89.24 302.27 211.73 302.27 219.27" />
      <polygon class="cls-13" points="302.27 211.73 90.12 89.25 96.65 85.48 308.8 207.96 302.27 211.73" />
      <polygon class="cls-3" points="332.69 201.83 120.54 79.34 120.54 71.8 332.69 194.29 332.69 201.83" />
      <polygon class="cls-13" points="332.69 194.29 120.54 71.8 127.07 68.03 339.22 190.52 332.69 194.29" />
      <polygon class="cls-2" points="339.22 198.08 302.27 219.27 302.27 211.72 339.22 190.54 339.22 198.08" />
      <polygon class="cls-13" points="339.22 190.54 302.29 211.73 296.76 208.54 333.69 187.35 339.22 190.54" />
      <polygon class="cls-2" points="306.1 186.46 282.3 192.73 270.08 185.67 305.05 178.3 306.1 178.92 306.1 186.46" />
      <polygon class="cls-13" points="306.1 178.92 272.97 187.34 265.85 183.22 299.23 174.7 306.1 178.92" />
      <polygon class="cls-3" points="252.41 147.96 252.41 155.5 255.51 177.21 260.11 180.06 252.41 147.96" />
      <polygon class="cls-13" points="266.04 183.29 260.08 152.39 252.41 147.96 257.07 178.41 266.04 183.29" />
      <polygon class="cls-2" points="252.41 155.5 228.62 161.77 216.4 154.71 251.37 147.34 252.41 147.96 252.41 155.5" />
      <polygon class="cls-13" points="252.41 147.96 219.29 156.38 212.17 152.27 245.55 143.74 252.41 147.96" />
      <polygon class="cls-3" points="198.54 116.83 198.54 124.37 201.63 146.08 206.24 148.94 198.54 116.83" />
      <polygon class="cls-13" points="212.17 152.16 206.21 121.26 198.54 116.83 203.19 147.28 212.17 152.16" />
      <polygon class="cls-2" points="198.54 124.37 174.75 130.64 162.53 123.58 197.5 116.21 198.54 116.83 198.54 124.37" />
      <polygon class="cls-13" points="198.54 116.83 165.41 125.25 158.29 121.14 191.68 112.61 198.54 116.83" />
      <polygon class="cls-3" points="144.67 85.72 144.67 93.26 147.76 114.97 152.37 117.82 144.67 85.72" />
      <polygon class="cls-13" points="158.29 121.05 152.34 90.15 144.67 85.72 149.32 116.17 158.29 121.05" />
      <polygon class="cls-2" points="144.67 93.26 120.88 99.53 108.66 92.47 143.63 85.1 144.67 85.72 144.67 93.26" />
      <polygon class="cls-13" points="144.67 85.72 111.54 94.14 104.42 90.03 137.8 81.5 144.67 85.72" />
      <polygon class="cls-1" points="94.17 500 66.35 484.08 107.99 460.25 135.81 476.16 94.17 500" />
      <polygon class="cls-3" points="94.75 467.91 71.71 454.6 94.75 441.3 117.79 454.61 94.75 467.91" />
      <polygon class="cls-16" points="94.75 494.52 71.71 481.21 71.71 454.6 94.75 467.91 94.75 494.52" />
      <polygon class="cls-17" points="117.79 481.21 94.75 494.52 94.75 467.91 117.79 454.6 117.79 481.21" />
      <g id="Men_5">
        <path class="cls-18" d="M125.72,472.84a7.83,7.83,0,0,0,5.93-.72c1.43,0,9.19-3.28,10.25-.49.92,2.45-2.44,4.71-4.24,5.14-3.92,1-6.82,2.91-8.39,3.24-1.17.25-2.69.41-3.63-.51C124.52,478.39,124.62,474.3,125.72,472.84Z" />
        <path class="cls-19" d="M129.27,479.33c1.57-.33,4.47-2.28,8.39-3.23,1.51-.37,4.1-2,4.36-4,.35,2.25-2.68,4.25-4.36,4.65-3.92,1-6.82,2.91-8.39,3.24-1.17.25-2.69.41-3.63-.51a2.45,2.45,0,0,1-.51-.94A4.69,4.69,0,0,0,129.27,479.33Z" />
        <path class="cls-18" d="M111.72,465.39a7.85,7.85,0,0,0,5.94-.72c1.43,0,9.19-3.28,10.24-.49.93,2.45-2.43,4.71-4.23,5.14-3.92.95-6.82,2.91-8.4,3.24-1.17.25-2.69.41-3.62-.51C110.53,470.94,110.62,466.85,111.72,465.39Z" />
        <path class="cls-19" d="M115.27,471.88c1.58-.33,4.48-2.28,8.4-3.23,1.5-.37,4.1-2,4.36-4,.35,2.25-2.69,4.25-4.36,4.65-3.92.95-6.82,2.91-8.4,3.24-1.17.25-2.69.41-3.62-.51a2.34,2.34,0,0,1-.52-.94A4.7,4.7,0,0,0,115.27,471.88Z" />
        <path class="cls-10" d="M89.93,455.73c6,2.66,11.76,3.08,16.43.57l4.82-2.78c.29,6.22.56,12.2.56,12.2s3.7,2.8,6.58.3c0,0,.6-8.73,1.21-17.32l5.06-2.92a6,6,0,0,0-.2,1.4c0,1.64,1.17,25.9,1.17,25.9s3.73,2.22,6.61-.28c0,0,1.94-28.12,2.38-32.61.5-5.05-5.11-7.54-8.65-6.24-.83.29-2.86,1.05-5.43,2,.11-1.41.2-2.5.26-3.12.51-5.06-5.1-7.55-8.65-6.25C108.84,427.76,87,436,87,436a54.55,54.55,0,0,0,.77,6.25l-8.62-.72C78.63,449.6,83.89,453.07,89.93,455.73Zm15.07-14,5.77-3.33a6.71,6.71,0,0,0-.19,1.24Z" />
        <path class="cls-20" d="M74.42,416.87s.71,10.73,2.12,12.28,6.17,2.6,6.17,2.6l3.66,6S83,418.6,82.3,418.14,74.42,416.87,74.42,416.87Z" />
        <path id="_Контур_" data-name="&lt;Контур&gt;" class="cls-21" d="M81.47,405a4,4,0,0,0-5.1,1.54c-1.35,2.24-2.75,9.9-2.88,11.21,0,0,1.89,2.62,4.73,2.18Z" />
        <path id="_Контур_2" data-name="&lt;Контур&gt;" class="cls-20" d="M82.76,405.09c1.86.09,3.24.57,3.47,0a23.86,23.86,0,0,0,.42-2.89c-.21-.54-.4-1.12-.4-1.12-2.32-1.43-3.06-4-3.37-6.88-.52-5,2.19-9.4,7.2-9.92,4.71-.49,8.17,2.82,9.1,7.36.49,2.25,1.49,6.49.15,10.18-.75,2.06-1.72,3.7-2.68,4a23.25,23.25,0,0,1-2.79-.25h0s-.25,1.39-.42,2.28-.1,1.37,1.67,2.46-2.69,3.35-5.6,3.13-6.2-2-7.11-3.87C81.4,407.51,81.49,405,82.76,405.09Z" />
        <g id="_Группа_" data-name="&lt;Группа&gt;">
          <g id="_Группа_2" data-name="&lt;Группа&gt;">
            <g id="_Группа_3" data-name="&lt;Группа&gt;">
              <path id="_Контур_3" data-name="&lt;Контур&gt;" class="cls-22" d="M129.74,437.91h0a1.5,1.5,0,0,1-.75,1.31l-14.13,8.16a1.51,1.51,0,0,1-1.51,0L93.53,435.94a1.5,1.5,0,0,1-.75-1.3v-.12Z" />
              <path id="_Контур_4" data-name="&lt;Контур&gt;" class="cls-22" d="M129,439.22l-14.13,8.16a1.49,1.49,0,0,1-.76.2v-9.67h15.64A1.5,1.5,0,0,1,129,439.22Z" />
              <g id="_Группа_4" data-name="&lt;Группа&gt;">
                <path id="_Контур_5" data-name="&lt;Контур&gt;" class="cls-23" d="M114.63,446.64a1.06,1.06,0,0,1-1.06,0L93,434.75c-.27-.15-.27-.4,0-.55l15.16-8.76,21.6,12.47Z" />
              </g>
              <g id="_Группа_5" data-name="&lt;Группа&gt;">
                <polygon id="_Контур_6" data-name="&lt;Контур&gt;" class="cls-24" points="101.44 437.91 101.54 437.97 108.14 441.78 111.76 439.69 111.87 439.63 105.16 435.76 101.44 437.91" />
                <polygon id="_Контур_7" data-name="&lt;Контур&gt;" class="cls-22" points="101.54 437.97 108.14 441.78 111.76 439.69 105.16 435.88 101.54 437.97" />
              </g>
              <path class="cls-25" d="M124.14,438.53l1,.55a.35.35,0,0,0,.3,0l.91-.53c.09-.05.1-.13,0-.17l-1-.55a.32.32,0,0,0-.3,0l-.91.52C124.08,438.41,124.07,438.48,124.14,438.53Z" />
              <path class="cls-25" d="M122.8,437.75l1,.55a.32.32,0,0,0,.3,0l.91-.53c.09-.05.1-.13,0-.17l-1-.55a.32.32,0,0,0-.3,0l-.91.53C122.73,437.63,122.72,437.71,122.8,437.75Z" />
              <path class="cls-25" d="M121.45,437l1,.55a.32.32,0,0,0,.3,0l.91-.52c.09-.06.1-.13,0-.18l-.95-.55a.35.35,0,0,0-.3,0l-.91.53C121.38,436.85,121.37,436.93,121.45,437Z" />
              <path class="cls-25" d="M120.1,436.2l1,.55a.38.38,0,0,0,.31,0l.91-.52c.09,0,.1-.13,0-.18l-1-.55a.34.34,0,0,0-.31,0l-.91.52C120,436.07,120,436.15,120.1,436.2Z" />
              <path class="cls-25" d="M118.75,435.42l1,.55a.32.32,0,0,0,.3,0l.91-.52c.09-.05.1-.13,0-.17l-1-.55a.34.34,0,0,0-.31,0l-.9.52C118.69,435.29,118.68,435.37,118.75,435.42Z" />
              <path class="cls-25" d="M117.41,434.64l1,.55a.35.35,0,0,0,.3,0l.91-.53c.09,0,.1-.13,0-.17l-1-.55a.32.32,0,0,0-.3,0l-.91.52C117.34,434.52,117.33,434.59,117.41,434.64Z" />
              <path class="cls-25" d="M116.06,433.86l1,.55a.32.32,0,0,0,.3,0l.91-.53c.09-.05.1-.13,0-.17l-.95-.55a.32.32,0,0,0-.3,0l-.91.53C116,433.74,116,433.82,116.06,433.86Z" />
              <path class="cls-25" d="M114.71,433.08l1,.55a.34.34,0,0,0,.31,0l.91-.52c.09-.06.09-.13,0-.18l-1-.55a.37.37,0,0,0-.31,0l-.91.53C114.64,433,114.63,433,114.71,433.08Z" />
              <path class="cls-25" d="M113.36,432.31l1,.55a.36.36,0,0,0,.3,0l.91-.52c.09-.05.1-.13,0-.18l-1-.55a.34.34,0,0,0-.31,0l-.9.52C113.3,432.18,113.29,432.26,113.36,432.31Z" />
              <path class="cls-25" d="M112,431.53l1,.55a.32.32,0,0,0,.3,0l.91-.52c.09-.05.1-.13,0-.17l-1-.55a.32.32,0,0,0-.3,0l-.91.52C112,431.4,111.94,431.48,112,431.53Z" />
              <path class="cls-25" d="M110.67,430.75l1,.55a.35.35,0,0,0,.3,0l.91-.53c.09-.05.1-.13,0-.17l-.95-.55a.32.32,0,0,0-.3,0l-.91.52C110.6,430.63,110.59,430.7,110.67,430.75Z" />
              <path class="cls-25" d="M109.32,430l1,.55a.34.34,0,0,0,.31,0l.91-.53c.09-.05.09-.13,0-.17l-1-.55a.34.34,0,0,0-.31,0l-.91.53C109.25,429.85,109.24,429.93,109.32,430Z" />
              <path class="cls-25" d="M108,429.19l1,.55a.32.32,0,0,0,.3,0l.91-.52c.09-.06.1-.13,0-.18l-1-.55a.37.37,0,0,0-.31,0l-.9.53C107.91,429.07,107.9,429.15,108,429.19Z" />
              <path class="cls-25" d="M106,428l1.6.93a.35.35,0,0,0,.3,0l.91-.52c.09-.05.1-.13,0-.18l-1.6-.92a.32.32,0,0,0-.3,0l-.91.53C105.91,427.92,105.9,428,106,428Z" />
              <path class="cls-25" d="M120.84,438.13l1,.55a.35.35,0,0,0,.3,0l.91-.53c.09-.05.1-.13,0-.17l-1-.55a.32.32,0,0,0-.3,0l-.91.52C120.77,438,120.76,438.08,120.84,438.13Z" />
              <path class="cls-25" d="M119.49,437.35l1,.55a.37.37,0,0,0,.31,0l.9-.53c.09-.05.1-.13,0-.17l-1-.55a.32.32,0,0,0-.3,0l-.91.53C119.42,437.23,119.41,437.31,119.49,437.35Z" />
              <path class="cls-25" d="M118.14,436.57l1,.55a.34.34,0,0,0,.31,0l.9-.53c.09-.05.1-.13,0-.17l-1-.55a.32.32,0,0,0-.3,0l-.91.53C118.07,436.45,118.06,436.53,118.14,436.57Z" />
              <path class="cls-25" d="M116.79,435.79l.95.55a.34.34,0,0,0,.31,0l.9-.53c.09-.05.1-.13,0-.17l-1-.55a.32.32,0,0,0-.3,0l-.91.53C116.72,435.67,116.71,435.75,116.79,435.79Z" />
              <path class="cls-25" d="M115.45,435l1,.55a.37.37,0,0,0,.31,0l.9-.53c.09,0,.1-.13,0-.17l-1-.55a.32.32,0,0,0-.3,0l-.91.52C115.38,434.9,115.37,435,115.45,435Z" />
              <path class="cls-25" d="M114.1,434.24l1,.55a.37.37,0,0,0,.31,0l.9-.53c.09-.05.1-.13,0-.17l-1-.55a.32.32,0,0,0-.3,0l-.91.52C114,434.12,114,434.19,114.1,434.24Z" />
              <path class="cls-25" d="M112.75,433.46l1,.55a.37.37,0,0,0,.31,0l.9-.53c.09-.05.1-.13,0-.17l-1-.55a.32.32,0,0,0-.3,0l-.91.52C112.68,433.34,112.67,433.41,112.75,433.46Z" />
              <path class="cls-25" d="M111.4,432.68l.95.55a.37.37,0,0,0,.31,0l.91-.53c.08-.05.09-.13,0-.17l-1-.55a.32.32,0,0,0-.3,0l-.91.53C111.33,432.56,111.32,432.64,111.4,432.68Z" />
              <path class="cls-25" d="M110.05,431.9l1,.55a.34.34,0,0,0,.31,0l.91-.53c.08-.05.09-.13,0-.17l-.95-.55a.34.34,0,0,0-.31,0l-.91.53C110,431.78,110,431.86,110.05,431.9Z" />
              <path class="cls-25" d="M108.7,431.12l1,.55a.34.34,0,0,0,.31,0l.91-.53c.09-.05.09-.13,0-.17l-1-.55a.37.37,0,0,0-.31,0l-.91.53C108.63,431,108.62,431.08,108.7,431.12Z" />
              <path class="cls-25" d="M107.35,430.34l1,.55a.34.34,0,0,0,.31,0l.91-.52c.09-.06.09-.14,0-.18l-1-.55a.37.37,0,0,0-.31,0l-.91.53C107.28,430.22,107.27,430.3,107.35,430.34Z" />
              <path class="cls-25" d="M106,429.56l1,.55a.34.34,0,0,0,.31,0l.91-.52c.09-.06.1-.13,0-.18l-1-.55a.37.37,0,0,0-.31,0l-.91.53C105.93,429.44,105.92,429.52,106,429.56Z" />
              <path class="cls-25" d="M122.19,438.91l1.6.92a.32.32,0,0,0,.3,0l.91-.52c.09-.06.1-.13,0-.18l-1.6-.92a.32.32,0,0,0-.3,0l-.91.52C122.12,438.79,122.11,438.86,122.19,438.91Z" />
              <path class="cls-25" d="M105.89,428.08l1,.55a.08.08,0,0,1,0,.16l-1,.56a.34.34,0,0,1-.28,0l-.08-.05a.3.3,0,0,0-.26,0l-1,.59a.34.34,0,0,1-.28,0l-.61-.35c-.08-.05-.08-.12,0-.16l1-.55.2-.11.14-.09.14-.08.82-.47A.28.28,0,0,1,105.89,428.08Z" />
              <path class="cls-25" d="M118.92,441.54l1,.55a.32.32,0,0,0,.3,0l.91-.52c.09-.06.1-.13,0-.18l-.95-.55a.35.35,0,0,0-.3,0l-.91.53C118.85,441.42,118.84,441.5,118.92,441.54Z" />
              <path class="cls-25" d="M117.57,440.77l1,.55a.34.34,0,0,0,.31,0l.9-.52c.09,0,.1-.13,0-.18l-1-.54a.32.32,0,0,0-.3,0l-.91.52C117.5,440.64,117.49,440.72,117.57,440.77Z" />
              <path class="cls-25" d="M116.23,440l1,.55a.32.32,0,0,0,.3,0l.91-.53c.09-.05.1-.13,0-.17l-1-.55a.32.32,0,0,0-.3,0l-.91.53C116.16,439.87,116.15,440,116.23,440Z" />
              <path class="cls-25" d="M104.78,433.38l1,.55a.32.32,0,0,0,.3,0l.91-.52c.09,0,.1-.13,0-.18l-1-.55a.34.34,0,0,0-.31,0l-.9.52C104.72,433.26,104.71,433.34,104.78,433.38Z" />
              <path class="cls-25" d="M103.44,432.61l1,.55a.37.37,0,0,0,.31,0l.9-.53c.09-.05.1-.13,0-.17l-1-.55a.32.32,0,0,0-.3,0l-.91.52C103.37,432.49,103.36,432.56,103.44,432.61Z" />
              <path class="cls-25" d="M102.1,431.83l1,.55a.32.32,0,0,0,.3,0l.91-.52c.09-.06.1-.13,0-.18l-1-.55a.35.35,0,0,0-.3,0l-.91.53C102,431.71,102,431.79,102.1,431.83Z" />
              <path class="cls-25" d="M100.75,431.06l1,.55a.32.32,0,0,0,.3,0l.91-.52c.09-.05.1-.13,0-.18l-1-.54a.34.34,0,0,0-.31,0l-.9.52C100.69,430.93,100.68,431,100.75,431.06Z" />
              <path class="cls-25" d="M114.54,439l1.3.74a.32.32,0,0,0,.3,0l.91-.52c.09-.05.1-.13,0-.18l-1.3-.75a.32.32,0,0,0-.3,0l-.91.52C114.47,438.89,114.46,439,114.54,439Z" />
              <path class="cls-25" d="M106.13,434.16l1.3.75a.35.35,0,0,0,.3,0l.91-.53c.09-.05.1-.13,0-.17l-1.3-.75a.32.32,0,0,0-.3,0l-.91.53C106.06,434,106.05,434.12,106.13,434.16Z" />
              <path class="cls-25" d="M107.82,435.14l6.33,3.65a.35.35,0,0,0,.3,0l.91-.53c.09-.05.1-.13,0-.17l-6.33-3.66a.32.32,0,0,0-.3,0l-.91.52C107.75,435,107.74,435.09,107.82,435.14Z" />
              <path class="cls-25" d="M119.17,438.67l1,.55a.32.32,0,0,0,.3,0l.91-.53c.09-.05.1-.13,0-.17l-.95-.55a.35.35,0,0,0-.3,0l-.91.53C119.1,438.55,119.09,438.63,119.17,438.67Z" />
              <path class="cls-25" d="M117.82,437.89l1,.55a.34.34,0,0,0,.31,0l.9-.52c.09-.05.1-.13,0-.18l-1-.55a.32.32,0,0,0-.3,0l-.91.52C117.75,437.77,117.74,437.85,117.82,437.89Z" />
              <path class="cls-25" d="M116.48,437.12l1,.55a.32.32,0,0,0,.3,0l.91-.52c.09-.05.1-.13,0-.17l-1-.55a.32.32,0,0,0-.3,0l-.91.52C116.41,437,116.4,437.07,116.48,437.12Z" />
              <path class="cls-25" d="M115.13,436.34l1,.55a.32.32,0,0,0,.3,0l.91-.53c.09-.05.1-.13,0-.17l-1-.55a.32.32,0,0,0-.3,0l-.91.53C115.06,436.22,115.05,436.3,115.13,436.34Z" />
              <path class="cls-25" d="M113.78,435.56l1,.55a.32.32,0,0,0,.3,0l.91-.52c.09-.06.1-.13,0-.18l-1-.55a.37.37,0,0,0-.31,0l-.91.53C113.72,435.44,113.71,435.52,113.78,435.56Z" />
              <path class="cls-25" d="M112.44,434.79l1,.55a.32.32,0,0,0,.3,0l.91-.52c.09-.05.1-.13,0-.18l-1-.55a.35.35,0,0,0-.3,0l-.91.52C112.37,434.66,112.36,434.74,112.44,434.79Z" />
              <path class="cls-25" d="M111.09,434l1,.55a.37.37,0,0,0,.31,0l.9-.53c.09,0,.1-.13,0-.17l-1-.55a.32.32,0,0,0-.3,0l-.91.52C111,433.89,111,434,111.09,434Z" />
              <path class="cls-25" d="M109.75,433.23l1,.55a.32.32,0,0,0,.3,0l.91-.53c.09-.05.1-.13,0-.17l-1-.55a.35.35,0,0,0-.3,0l-.91.53C109.68,433.11,109.67,433.19,109.75,433.23Z" />
              <path class="cls-25" d="M108.4,432.45l.95.55a.32.32,0,0,0,.3,0l.91-.52c.09-.05.1-.13,0-.18l-1-.55a.32.32,0,0,0-.3,0l-.91.52C108.33,432.33,108.32,432.41,108.4,432.45Z" />
              <path class="cls-25" d="M107.05,431.68l1,.55a.34.34,0,0,0,.31,0l.91-.52c.09-.05.1-.13,0-.17l-.95-.55a.34.34,0,0,0-.31,0l-.91.52C107,431.55,107,431.63,107.05,431.68Z" />
              <path class="cls-25" d="M105.71,430.9l1,.55a.32.32,0,0,0,.3,0l.91-.53c.09-.05.1-.13,0-.17l-1-.55a.32.32,0,0,0-.3,0l-.91.53C105.64,430.78,105.63,430.86,105.71,430.9Z" />
              <path class="cls-25" d="M104.36,430.12l1,.55a.34.34,0,0,0,.31,0l.9-.52c.09-.06.1-.13,0-.18l-1-.55a.35.35,0,0,0-.3,0l-.91.53C104.29,430,104.28,430.08,104.36,430.12Z" />
              <path class="cls-25" d="M120.51,439.45l2,1.14a.35.35,0,0,0,.3,0l.91-.52c.09-.05.1-.13,0-.18l-2-1.13a.34.34,0,0,0-.31,0l-.9.52C120.45,439.33,120.44,439.4,120.51,439.45Z" />
              <path class="cls-25" d="M118.53,439.81l1,.55a.32.32,0,0,0,.3,0l.91-.53c.09-.05.1-.13,0-.17l-.95-.55a.35.35,0,0,0-.3,0l-.91.53C118.46,439.69,118.45,439.77,118.53,439.81Z" />
              <path class="cls-25" d="M117.18,439l1,.55a.32.32,0,0,0,.3,0l.91-.52c.09-.05.1-.13,0-.18l-1-.55a.34.34,0,0,0-.31,0l-.9.52C117.12,438.91,117.11,439,117.18,439Z" />
              <path class="cls-25" d="M115.84,438.26l1,.55a.32.32,0,0,0,.3,0l.91-.52c.09,0,.1-.13,0-.17l-1-.55a.32.32,0,0,0-.3,0l-.91.52C115.77,438.13,115.76,438.21,115.84,438.26Z" />
              <path class="cls-25" d="M114.49,437.48l1,.55a.34.34,0,0,0,.31,0l.91-.53c.08-.05.09-.13,0-.17l-1-.55a.34.34,0,0,0-.31,0l-.91.53C114.42,437.36,114.41,437.44,114.49,437.48Z" />
              <path class="cls-25" d="M113.15,436.7l.95.55a.32.32,0,0,0,.3,0l.91-.52c.09-.06.1-.13,0-.18l-1-.55a.35.35,0,0,0-.3,0l-.91.53C113.08,436.58,113.07,436.66,113.15,436.7Z" />
              <path class="cls-25" d="M111.8,435.93l1,.55a.34.34,0,0,0,.31,0l.9-.52c.09-.05.1-.13,0-.18l-1-.55a.36.36,0,0,0-.3,0l-.91.52C111.73,435.8,111.72,435.88,111.8,435.93Z" />
              <path class="cls-25" d="M110.45,435.15l1,.55a.35.35,0,0,0,.3,0l.91-.53c.09-.05.1-.13,0-.17l-1-.55a.34.34,0,0,0-.31,0l-.9.52C110.39,435,110.38,435.1,110.45,435.15Z" />
              <path class="cls-25" d="M109.11,434.37l1,.55a.32.32,0,0,0,.3,0l.91-.52c.09-.06.1-.13,0-.18l-1-.55a.35.35,0,0,0-.3,0l-.91.53C109,434.25,109,434.33,109.11,434.37Z" />
              <path class="cls-25" d="M107.76,433.6l.95.55a.38.38,0,0,0,.31,0l.91-.52c.09-.05.1-.13,0-.18l-1-.55a.34.34,0,0,0-.31,0l-.91.52C107.7,433.47,107.69,433.55,107.76,433.6Z" />
              <path class="cls-25" d="M106.42,432.82l1,.55a.35.35,0,0,0,.3,0l.91-.53c.09-.05.1-.13,0-.17l-.95-.55a.32.32,0,0,0-.3,0l-.91.52C106.35,432.7,106.34,432.77,106.42,432.82Z" />
              <path class="cls-25" d="M105.07,432l1,.55a.34.34,0,0,0,.31,0l.9-.53c.09-.05.1-.13,0-.17l-1-.55a.35.35,0,0,0-.3,0l-.91.53C105,431.92,105,432,105.07,432Z" />
              <path class="cls-25" d="M102.06,430.3l2.62,1.51a.32.32,0,0,0,.3,0l.91-.52c.09,0,.1-.13,0-.18l-2.62-1.51a.35.35,0,0,0-.3,0l-.91.53C102,430.18,102,430.26,102.06,430.3Z" />
              <path class="cls-25" d="M119.88,440.59l1.29.75a.37.37,0,0,0,.31,0l.9-.53c.09-.05.1-.13,0-.17l-1.3-.75a.32.32,0,0,0-.3,0l-.91.52C119.81,440.47,119.8,440.54,119.88,440.59Z" />
            </g>
            <g id="_Группа_6" data-name="&lt;Группа&gt;">
              <g id="_Группа_7" data-name="&lt;Группа&gt;">
                <g id="_Группа_8" data-name="&lt;Группа&gt;">
                  <path id="_Контур_8" data-name="&lt;Контур&gt;" class="cls-22" d="M129.74,437.91h0l-21.6-12.47v-17l.17-.38.18-.09h0a1.52,1.52,0,0,1,1.49,0l19.76,11.42a1.48,1.48,0,0,1,.75,1.29v15.93C130.35,437.45,130.2,437.65,129.74,437.91Z" />
                  <path id="_Контур_9" data-name="&lt;Контур&gt;" class="cls-22" d="M127.76,421.45,108.14,409v-.57l.17-.38.18-.09a1.52,1.52,0,0,1,1.49,0l19.76,11.42a1.44,1.44,0,0,1,.57.58Z" />
                  <path id="_Контур_10" data-name="&lt;Контур&gt;" class="cls-26" d="M108.64,408.07l20.74,12a.71.71,0,0,1,.36.62v17.24l-21.6-12.47V408.36A.33.33,0,0,1,108.64,408.07Z" />
                  <path id="_Контур_11" data-name="&lt;Контур&gt;" class="cls-23" d="M108.64,408.07l20.74,12a.71.71,0,0,1,.36.62v17.24l-21.6-12.47V408.36A.33.33,0,0,1,108.64,408.07Z" />
                  <polygon id="_Контур_12" data-name="&lt;Контур&gt;" class="cls-27" points="129.74 437.91 129.74 437.3 108.14 424.82 108.14 425.44 129.74 437.91" />
                </g>
                <polygon id="_Контур_13" data-name="&lt;Контур&gt;" class="cls-28" points="108.7 424.54 108.7 408.96 108.97 409.11 108.97 424.4 108.7 424.54" />
                <polygon id="_Контур_14" data-name="&lt;Контур&gt;" class="cls-25" points="108.97 409.11 108.97 424.4 129.05 435.97 129.05 420.71 108.97 409.11" />
                <polygon id="_Контур_15" data-name="&lt;Контур&gt;" class="cls-29" points="108.7 424.54 129.05 436.28 129.05 435.97 108.97 424.4 108.7 424.54" />
              </g>
            </g>
          </g>
        </g>
        <path id="_Контур_16" data-name="&lt;Контур&gt;" class="cls-23" d="M85.44,405.37c-.51,1.28.8,2.84,4.28,3.94s3.8-.31,3.8-.31a69.23,69.23,0,0,1,6.77,3.48c2.09,1.47,3,5.69,3.29,12.83.33,8.26.36,20.52.08,22.63,0,0-3.9,3.9-8.9,3.49s-13.41-4.84-15.45-8.25c0-7.25.9-8.43-.27-12.6-2.69-9.55-4.1-13.46-2.8-19.81,1.08-5.23,2.59-5.88,4.65-5.83A42.54,42.54,0,0,1,85.44,405.37Z" />
        <path id="_Контур_17" data-name="&lt;Контур&gt;" class="cls-20" d="M111.81,434.17c-4.11,1-5.07-1.55-5.61-3.7-1.3-5.18-2-9.87-3-12.81-1.15-3.47-2.35-4-4-4.7-2-.79-3.69.88-3,5.3a88.08,88.08,0,0,0,3.76,15.08c.51,1.62,1.66,4.49,3.37,5.87,2.12,1.71,5.3,1.64,10.13.44,2-.51,4.31-1.74,8.2-3.56,1-.48,1.86-.81,3.86-1.74a13.55,13.55,0,0,0,5.15-4c1.05-1.52,1.19-2.23,1-2.58s-.74-.34-1.3.3a11,11,0,0,1-3,2.73s1.3-1.33,2-2.2a10.5,10.5,0,0,0,1.55-2.54c.38-.89-.39-2.09-1-1.46s-.86,1.28-1.92,2.55a10.6,10.6,0,0,1-1.9,1.81,20.47,20.47,0,0,0,1.75-2.82,4.56,4.56,0,0,0,.64-2.54c0-.47-.68-1-1.3-.14a16.55,16.55,0,0,1-2.2,3.37c-.94,1-1.73,1.53-1.76,1.26s.57-.8.9-1.93,0-2.34-.62-2.47-.51-.09-1,1a29.89,29.89,0,0,0-1.86,3.39,7,7,0,0,1-1.69,2.9C117.94,432,115.71,433.19,111.81,434.17Z" />
        <path id="_Контур_18" data-name="&lt;Контур&gt;" class="cls-21" d="M97.67,412.25c2.74-.4,4.67.83,5.88,5s2.06,7.56,2.06,7.56a7.48,7.48,0,0,1-4.59,3c-3.28.79-4.46-.77-4.46-.77s-.91-4.36-1.47-7.32S94.28,412.75,97.67,412.25Z" />
        <path class="cls-25" d="M99,391s4.33-6.58-5-7.92c-6.77-1-11.11,3.38-11.62,8.09-.48,4.51,2.3,9.19,4.3,11.05a8.25,8.25,0,0,0,5.85-.71,33,33,0,0,0,.13-3.69S89.33,390.88,99,391Z" />
      </g>
      <polygon class="cls-17" points="117.79 474.26 117.79 454.5 102.1 463.66 108.14 476.16 117.79 474.26" />
      <polygon class="cls-3" points="107.51 455.64 113.53 452.14 117.79 454.61 111.55 458.15 107.51 455.64" />
      <path class="cls-1" d="M31.75,345.63,5,329.94c-3-1.78-2.66-4.89.85-6.94l13.6-8c3.51-2,8.81-2.27,11.85-.49l26.79,15.69c3,1.77,2.65,4.88-.85,6.94l-13.6,8C40.09,347.19,34.78,347.41,31.75,345.63Z" />
      <path class="cls-3" d="M65,330.16V292.23L7.78,285.7v38.17h0a3.51,3.51,0,0,0,2,3.11L36.6,342.67c3,1.78,8.35,1.56,11.85-.5l13.6-8c2-1.16,3-2.65,2.9-4Z" />
      <path class="cls-30" d="M64.94,296.37l0-4.14h-4.4L36.12,277.91c-3-1.78-8.35-1.55-11.85.5l-13.6,8a7.21,7.21,0,0,0-.71.46L7.78,285.7s0,4.37,0,4.52h0a3.53,3.53,0,0,0,2,3.1L36.6,309c3,1.78,8.35,1.55,11.85-.5l13.6-8c2-1.19,3-2.73,2.89-4.17Z" />
      <path class="cls-31" d="M36.6,304.5,9.82,288.81c-3-1.78-2.66-4.89.85-6.94l13.6-8c3.5-2,8.81-2.28,11.85-.5l26.79,15.69c3,1.78,2.65,4.89-.86,6.94l-13.6,8C45,306.05,39.64,306.28,36.6,304.5Z" />
      <path class="cls-32" d="M30.57,283.08v-1.51h-.91l-.29-.18a6.3,6.3,0,0,0-5.79,0,2.93,2.93,0,0,0-.48.34l-.71-.16v1.51a2,2,0,0,0,1.19,1.7,6.36,6.36,0,0,0,5.79,0A2.08,2.08,0,0,0,30.57,283.08Z" />
      <ellipse class="cls-10" cx="26.48" cy="281.57" rx="4.09" ry="2.4" />
      <path class="cls-32" d="M40.45,288.77v-1.51h-.91l-.28-.18a6.3,6.3,0,0,0-5.79,0,2.64,2.64,0,0,0-.49.34l-.71-.16v1.51a2.08,2.08,0,0,0,1.2,1.7,6.36,6.36,0,0,0,5.79,0A2,2,0,0,0,40.45,288.77Z" />
      <ellipse class="cls-10" cx="36.36" cy="287.26" rx="4.09" ry="2.4" />
      <path class="cls-32" d="M50.35,294.85v-1.51h-.92l-.28-.18a6.3,6.3,0,0,0-5.79,0,3.23,3.23,0,0,0-.49.34l-.71-.16v1.51a2.06,2.06,0,0,0,1.2,1.7,6.3,6.3,0,0,0,5.79,0A2.06,2.06,0,0,0,50.35,294.85Z" />
      <ellipse class="cls-10" cx="46.25" cy="293.34" rx="4.09" ry="2.4" />
    </g>
  </g>
</svg>